<?xml version="1.0" encoding="UTF-8" standalone="no"?>
<svg
   xmlns:dc="http://purl.org/dc/elements/1.1/"
   xmlns:cc="http://creativecommons.org/ns#"
   xmlns:rdf="http://www.w3.org/1999/02/22-rdf-syntax-ns#"
   xmlns:svg="http://www.w3.org/2000/svg"
   xmlns="http://www.w3.org/2000/svg"
   xmlns:sodipodi="http://sodipodi.sourceforge.net/DTD/sodipodi-0.dtd"
   xmlns:inkscape="http://www.inkscape.org/namespaces/inkscape"
   inkscape:export-ydpi="95"
   inkscape:export-xdpi="95"
   inkscape:export-filename=""
   inkscape:version="1.0 (4035a4fb49, 2020-05-01)"
   sodipodi:docname="envizon-icon-export-blue.svg"
   id="svg22236"
   version="1.1"
   viewBox="0 0 300 300"
   height="300mm"
   width="300mm">
  <defs
     id="defs22230">
    <clipPath
       id="clipPath44228-6-0-1"
       clipPathUnits="userSpaceOnUse">
      <path
         inkscape:connector-curvature="0"
         id="path44230-08-4-4"
         d="M 6.0476191,0.00520786 16.117141,17.446131 H 48.0266 L 61.210706,-5.389412 H 1.7008928 Z"
         style="fill:none;stroke:#000000;stroke-width:0.26458332px;stroke-linecap:butt;stroke-linejoin:miter;stroke-opacity:1" />
    </clipPath>
    <clipPath
       id="clipPath44228-9-7-8-6"
       clipPathUnits="userSpaceOnUse">
      <path
         inkscape:connector-curvature="0"
         id="path44230-6-0-8-94"
         d="M 6.0476191,0.00520786 16.117141,17.446131 H 48.0266 L 61.210706,-5.389412 H 1.7008928 Z"
         style="fill:none;stroke:#000000;stroke-width:0.26458332px;stroke-linecap:butt;stroke-linejoin:miter;stroke-opacity:1" />
    </clipPath>
    <clipPath
       id="clipPath44228-8-1-7-8-2"
       clipPathUnits="userSpaceOnUse">
      <path
         inkscape:connector-curvature="0"
         id="path44230-0-0-4-9-26"
         d="M 6.0476191,0.00520786 16.117141,17.446131 H 48.0266 L 61.210706,-5.389412 H 1.7008928 Z"
         style="fill:none;stroke:#000000;stroke-width:0.26458332px;stroke-linecap:butt;stroke-linejoin:miter;stroke-opacity:1" />
    </clipPath>
    <clipPath
       id="clipPath44228-8-2-7-7-4"
       clipPathUnits="userSpaceOnUse">
      <path
         inkscape:connector-curvature="0"
         id="path44230-0-9-9-7-1"
         d="M 6.0476191,0.00520786 16.117141,17.446131 H 48.0266 L 61.210706,-5.389412 H 1.7008928 Z"
         style="fill:none;stroke:#000000;stroke-width:0.26458332px;stroke-linecap:butt;stroke-linejoin:miter;stroke-opacity:1" />
    </clipPath>
    <clipPath
       id="clipPath44228-8-2-5-6-64-2"
       clipPathUnits="userSpaceOnUse">
      <path
         inkscape:connector-curvature="0"
         id="path44230-0-9-6-3-30-8"
         d="M 6.0476191,0.00520786 16.117141,17.446131 H 48.0266 L 61.210706,-5.389412 H 1.7008928 Z"
         style="fill:none;stroke:#000000;stroke-width:0.26458332px;stroke-linecap:butt;stroke-linejoin:miter;stroke-opacity:1" />
    </clipPath>
    <clipPath
       id="clipPath44228-6-0-1-1"
       clipPathUnits="userSpaceOnUse">
      <path
         inkscape:connector-curvature="0"
         id="path44230-08-4-4-7"
         d="M 6.0476191,0.00520786 16.117141,17.446131 H 48.0266 L 61.210706,-5.389412 H 1.7008928 Z"
         style="fill:none;stroke:#000000;stroke-width:0.26458332px;stroke-linecap:butt;stroke-linejoin:miter;stroke-opacity:1" />
    </clipPath>
    <clipPath
       id="clipPath44228-9-7-8-6-4"
       clipPathUnits="userSpaceOnUse">
      <path
         inkscape:connector-curvature="0"
         id="path44230-6-0-8-94-1"
         d="M 6.0476191,0.00520786 16.117141,17.446131 H 48.0266 L 61.210706,-5.389412 H 1.7008928 Z"
         style="fill:none;stroke:#000000;stroke-width:0.26458332px;stroke-linecap:butt;stroke-linejoin:miter;stroke-opacity:1" />
    </clipPath>
    <clipPath
       id="clipPath44228-8-1-7-8-2-7"
       clipPathUnits="userSpaceOnUse">
      <path
         inkscape:connector-curvature="0"
         id="path44230-0-0-4-9-26-1"
         d="M 6.0476191,0.00520786 16.117141,17.446131 H 48.0266 L 61.210706,-5.389412 H 1.7008928 Z"
         style="fill:none;stroke:#000000;stroke-width:0.26458332px;stroke-linecap:butt;stroke-linejoin:miter;stroke-opacity:1" />
    </clipPath>
    <clipPath
       id="clipPath44228-8-2-7-7-4-1"
       clipPathUnits="userSpaceOnUse">
      <path
         inkscape:connector-curvature="0"
         id="path44230-0-9-9-7-1-1"
         d="M 6.0476191,0.00520786 16.117141,17.446131 H 48.0266 L 61.210706,-5.389412 H 1.7008928 Z"
         style="fill:none;stroke:#000000;stroke-width:0.26458332px;stroke-linecap:butt;stroke-linejoin:miter;stroke-opacity:1" />
    </clipPath>
    <clipPath
       id="clipPath44228-8-2-5-6-64-2-7"
       clipPathUnits="userSpaceOnUse">
      <path
         inkscape:connector-curvature="0"
         id="path44230-0-9-6-3-30-8-0"
         d="M 6.0476191,0.00520786 16.117141,17.446131 H 48.0266 L 61.210706,-5.389412 H 1.7008928 Z"
         style="fill:none;stroke:#000000;stroke-width:0.26458332px;stroke-linecap:butt;stroke-linejoin:miter;stroke-opacity:1" />
    </clipPath>
    <symbol
       viewBox="0 0 28 28"
       id="icon-eye">
      <title
         id="title5132">eye</title>
      <path
         id="path5134"
         d="M 6.8791667,3.96875 C 6.486525,3.3610021 5.9488917,2.8400375 5.3041021,2.5093083 5.4694667,2.7902958 5.55625,3.1128229 5.55625,3.4395833 c 0,1.0210271 -0.8310563,1.8520834 -1.8520833,1.8520834 -1.0210271,0 -1.8520834,-0.8310563 -1.8520834,-1.8520834 0,-0.3264958 0.086783,-0.6490229 0.2521479,-0.930275 C 1.4591771,2.8400375 0.92180833,3.3610021 0.52916667,3.96875 1.2361333,5.0601562 2.3770167,5.8208333 3.7041667,5.8208333 c 1.32715,0 2.4680333,-0.7606771 3.175,-1.8520833 z M 3.9026042,2.38125 c 0,-0.1074208 -0.091017,-0.1984375 -0.1984375,-0.1984375 -0.690298,0 -1.2567709,0.5664729 -1.2567709,1.2567708 0,0.1074209 0.091017,0.1984375 0.1984375,0.1984375 0.1074209,0 0.1984375,-0.091017 0.1984375,-0.1984375 0,-0.4712229 0.3886729,-0.8598958 0.8598959,-0.8598958 0.1074208,0 0.1984375,-0.091017 0.1984375,-0.1984375 z m 3.5057291,1.5875 c 0,0.1034521 -0.033073,0.1984375 -0.082815,0.2852208 C 6.5648417,5.5065083 5.1715458,6.35 3.7041667,6.35 2.2367875,6.35 0.84322708,5.5025396 0.08281458,4.2539708 0.0333375,4.1671875 0,4.0719375 0,3.96875 0,3.8655625 0.03307292,3.7703125 0.08281458,3.6835292 0.84349167,2.4349604 2.2367875,1.5875 3.7041667,1.5875 c 1.4673791,0 2.8609395,0.8474604 3.621352,2.0960292 0.049477,0.086783 0.082815,0.1820333 0.082815,0.2852208 z"
         inkscape:connector-curvature="0"
         style="stroke-width:0.26458332" />
    </symbol>
    <symbol
       viewBox="0 0 28 28"
       id="icon-sitemap">
      <title
         id="title5642">sitemap</title>
      <path
         id="path5644"
         d="m 7.4083333,5.159375 v 1.3229167 c 0,0.219075 -0.1778,0.396875 -0.396875,0.396875 H 5.6885417 c -0.219075,0 -0.396875,-0.1778 -0.396875,-0.396875 V 5.159375 c 0,-0.219075 0.1778,-0.396875 0.396875,-0.396875 h 0.396875 V 3.96875 H 3.96875 V 4.7625 H 4.365625 C 4.5847,4.7625 4.7625,4.9403 4.7625,5.159375 v 1.3229167 c 0,0.219075 -0.1778,0.396875 -0.396875,0.396875 H 3.0427083 c -0.219075,0 -0.396875,-0.1778 -0.396875,-0.396875 V 5.159375 c 0,-0.219075 0.1778,-0.396875 0.396875,-0.396875 h 0.396875 V 3.96875 H 1.3229167 V 4.7625 h 0.396875 c 0.219075,0 0.396875,0.1778 0.396875,0.396875 v 1.3229167 c 0,0.219075 -0.1778,0.396875 -0.396875,0.396875 H 0.396875 C 0.1778,6.8791667 0,6.7013667 0,6.4822917 V 5.159375 C 0,4.9403 0.1778,4.7625 0.396875,4.7625 H 0.79375 V 3.96875 c 0,-0.2894542 0.2397125,-0.5291667 0.5291667,-0.5291667 h 2.1166666 v -0.79375 h -0.396875 c -0.219075,0 -0.396875,-0.1778 -0.396875,-0.396875 V 0.92604167 c 0,-0.219075 0.1778,-0.396875 0.396875,-0.396875 H 4.365625 c 0.219075,0 0.396875,0.1778 0.396875,0.396875 V 2.2489583 c 0,0.219075 -0.1778,0.396875 -0.396875,0.396875 H 3.96875 v 0.79375 h 2.1166667 c 0.2894541,0 0.5291666,0.2397125 0.5291666,0.5291667 V 4.7625 h 0.396875 c 0.219075,0 0.396875,0.1778 0.396875,0.396875 z"
         inkscape:connector-curvature="0"
         style="stroke-width:0.26458332" />
    </symbol>
  </defs>
  <sodipodi:namedview
     inkscape:document-rotation="0"
     inkscape:window-maximized="1"
     inkscape:window-y="31"
     inkscape:window-x="0"
     inkscape:window-height="1021"
     inkscape:window-width="1920"
     showgrid="false"
     inkscape:current-layer="layer1"
     inkscape:document-units="mm"
     inkscape:cy="554.27849"
     inkscape:cx="-634.85932"
     inkscape:zoom="0.26379502"
     inkscape:pageshadow="2"
     inkscape:pageopacity="0.0"
     borderopacity="1.0"
     bordercolor="#666666"
     pagecolor="#ffffff"
     id="base" />
  <metadata
     id="metadata22233">
    <rdf:RDF>
      <cc:Work
         rdf:about="">
        <dc:format>image/svg+xml</dc:format>
        <dc:type
           rdf:resource="http://purl.org/dc/dcmitype/StillImage" />
        <dc:title />
      </cc:Work>
    </rdf:RDF>
  </metadata>
  <g
     transform="translate(0,3)"
     id="layer1"
     inkscape:groupmode="layer"
     inkscape:label="Ebene 1">
    <g
       id="use21861-6"
       style="fill:#000000;fill-opacity:1;stroke:none"
       transform="matrix(0.36540969,0,0,0.36540969,149.41991,146.20238)">
      <title
         id="title42512">check</title>
      <path
         id="path42514"
         d="M 3.175,1.3229167 1.0583333,3.4395833 0,2.38125 0.396875,1.984375 1.0583333,2.6458333 2.778125,0.92604167 Z"
         inkscape:connector-curvature="0"
         style="fill:#000000;fill-opacity:1;stroke-width:0.264583" />
    </g>
    <path
       id="path21890-8"
       style="color:#000000;font-style:normal;font-variant:normal;font-weight:normal;font-stretch:normal;font-size:medium;line-height:normal;font-family:sans-serif;font-variant-ligatures:normal;font-variant-position:normal;font-variant-caps:normal;font-variant-numeric:normal;font-variant-alternates:normal;font-feature-settings:normal;text-indent:0;text-align:start;text-decoration:none;text-decoration-line:none;text-decoration-style:solid;text-decoration-color:#000000;letter-spacing:normal;word-spacing:normal;text-transform:none;writing-mode:lr-tb;direction:ltr;text-orientation:mixed;dominant-baseline:auto;baseline-shift:baseline;text-anchor:start;white-space:normal;shape-padding:0;clip-rule:nonzero;display:inline;overflow:visible;visibility:visible;opacity:1;isolation:auto;mix-blend-mode:normal;color-interpolation:sRGB;color-interpolation-filters:linearRGB;solid-color:#000000;solid-opacity:1;vector-effect:none;fill:#1565c0;fill-opacity:1;fill-rule:nonzero;stroke:none;stroke-width:4.548;stroke-linecap:square;stroke-linejoin:miter;stroke-miterlimit:4;stroke-dasharray:none;stroke-dashoffset:0;stroke-opacity:1;paint-order:normal;color-rendering:auto;image-rendering:auto;shape-rendering:auto;text-rendering:auto;enable-background:accumulate"
       d="m 93.297852,48.796876 c -18.89779,32.734381 -37.79558,65.468754 -56.69336,98.203114 18.89778,32.73503 37.79557,65.47006 56.69336,98.20508 37.800788,0 75.601568,0 113.402348,0 18.89844,-32.73502 37.79688,-65.47005 56.69531,-98.20508 -18.89778,-32.73502 -37.79557,-65.470034 -56.69335,-98.205064 -37.80144,6.5e-4 -75.60287,0.001 -113.404307,0.002 z m 5.226565,8.51368 c 34.417973,6.3e-4 68.835943,0.001 103.253913,0.002 17.26442,29.895661 34.52567,59.793164 51.78906,89.689434 -17.26275,29.89626 -34.52333,59.79379 -51.78711,89.68945 -34.52018,5.3e-4 -69.04036,0.001 -103.560557,0.002 -17.26443,-29.89631 -34.52566,-59.79448 -51.78906,-89.69139 17.2634,-29.89692 34.52463,-59.795093 51.78906,-89.691413 0.10157,0 0.20313,0 0.304695,0 z" />
    <path
       inkscape:connector-curvature="0"
       id="path21890-8-8"
       d="m 150,105.01231 -36.36225,20.99385 2e-5,41.98768 36.36222,20.99384 36.36224,-20.99384 1e-5,-1.33344 v -40.65422 z m -1e-5,5.33636 31.7421,18.32567 -2e-5,36.65132 -31.742,18.3271 -31.74217,-18.32582 -1e-5,-36.65263 z"
       style="color:#000000;font-style:normal;font-variant:normal;font-weight:normal;font-stretch:normal;font-size:medium;line-height:normal;font-family:sans-serif;font-variant-ligatures:normal;font-variant-position:normal;font-variant-caps:normal;font-variant-numeric:normal;font-variant-alternates:normal;font-feature-settings:normal;text-indent:0;text-align:start;text-decoration:none;text-decoration-line:none;text-decoration-style:solid;text-decoration-color:#000000;letter-spacing:normal;word-spacing:normal;text-transform:none;writing-mode:lr-tb;direction:ltr;text-orientation:mixed;dominant-baseline:auto;baseline-shift:baseline;text-anchor:start;white-space:normal;shape-padding:0;clip-rule:nonzero;display:inline;overflow:visible;visibility:visible;opacity:1;isolation:auto;mix-blend-mode:normal;color-interpolation:sRGB;color-interpolation-filters:linearRGB;solid-color:#000000;solid-opacity:1;vector-effect:none;fill:#1565c0;fill-opacity:1;fill-rule:nonzero;stroke:none;stroke-width:1.64845;stroke-linecap:square;stroke-linejoin:miter;stroke-miterlimit:4;stroke-dasharray:none;stroke-dashoffset:0;stroke-opacity:1;paint-order:normal;color-rendering:auto;image-rendering:auto;shape-rendering:auto;text-rendering:auto;enable-background:accumulate" />
  </g>
</svg>
