<?xml version="1.0" encoding="UTF-8" standalone="no"?>
<!-- Created with Inkscape (http://www.inkscape.org/) -->

<svg
   xmlns:dc="http://purl.org/dc/elements/1.1/"
   xmlns:cc="http://creativecommons.org/ns#"
   xmlns:rdf="http://www.w3.org/1999/02/22-rdf-syntax-ns#"
   xmlns:svg="http://www.w3.org/2000/svg"
   xmlns="http://www.w3.org/2000/svg"
   xmlns:xlink="http://www.w3.org/1999/xlink"
   xmlns:sodipodi="http://sodipodi.sourceforge.net/DTD/sodipodi-0.dtd"
   xmlns:inkscape="http://www.inkscape.org/namespaces/inkscape"
   width="950mm"
   height="300mm"
   viewBox="0 0 950 300"
   version="1.1"
   id="svg22236"
   sodipodi:docname="envizon-wide-2018-black.svg"
   inkscape:version="0.92.2 5c3e80d, 2017-08-06"
   inkscape:export-filename=""
   inkscape:export-xdpi="95"
   inkscape:export-ydpi="95">
  <defs
     id="defs22230">
    <clipPath
       clipPathUnits="userSpaceOnUse"
       id="clipPath44228-6-0-1">
      <path
         style="fill:none;stroke:#000000;stroke-width:0.26458332px;stroke-linecap:butt;stroke-linejoin:miter;stroke-opacity:1"
         d="M 6.0476191,0.00520786 16.117141,17.446131 H 48.0266 L 61.210706,-5.389412 H 1.7008928 Z"
         id="path44230-08-4-4"
         inkscape:connector-curvature="0" />
    </clipPath>
    <clipPath
       clipPathUnits="userSpaceOnUse"
       id="clipPath44228-9-7-8-6">
      <path
         style="fill:none;stroke:#000000;stroke-width:0.26458332px;stroke-linecap:butt;stroke-linejoin:miter;stroke-opacity:1"
         d="M 6.0476191,0.00520786 16.117141,17.446131 H 48.0266 L 61.210706,-5.389412 H 1.7008928 Z"
         id="path44230-6-0-8-94"
         inkscape:connector-curvature="0" />
    </clipPath>
    <clipPath
       clipPathUnits="userSpaceOnUse"
       id="clipPath44228-8-1-7-8-2">
      <path
         style="fill:none;stroke:#000000;stroke-width:0.26458332px;stroke-linecap:butt;stroke-linejoin:miter;stroke-opacity:1"
         d="M 6.0476191,0.00520786 16.117141,17.446131 H 48.0266 L 61.210706,-5.389412 H 1.7008928 Z"
         id="path44230-0-0-4-9-26"
         inkscape:connector-curvature="0" />
    </clipPath>
    <clipPath
       clipPathUnits="userSpaceOnUse"
       id="clipPath44228-8-2-7-7-4">
      <path
         style="fill:none;stroke:#000000;stroke-width:0.26458332px;stroke-linecap:butt;stroke-linejoin:miter;stroke-opacity:1"
         d="M 6.0476191,0.00520786 16.117141,17.446131 H 48.0266 L 61.210706,-5.389412 H 1.7008928 Z"
         id="path44230-0-9-9-7-1"
         inkscape:connector-curvature="0" />
    </clipPath>
    <clipPath
       clipPathUnits="userSpaceOnUse"
       id="clipPath44228-8-2-5-6-64-2">
      <path
         style="fill:none;stroke:#000000;stroke-width:0.26458332px;stroke-linecap:butt;stroke-linejoin:miter;stroke-opacity:1"
         d="M 6.0476191,0.00520786 16.117141,17.446131 H 48.0266 L 61.210706,-5.389412 H 1.7008928 Z"
         id="path44230-0-9-6-3-30-8"
         inkscape:connector-curvature="0" />
    </clipPath>
    <clipPath
       clipPathUnits="userSpaceOnUse"
       id="clipPath44228-6-0-1-1">
      <path
         style="fill:none;stroke:#000000;stroke-width:0.26458332px;stroke-linecap:butt;stroke-linejoin:miter;stroke-opacity:1"
         d="M 6.0476191,0.00520786 16.117141,17.446131 H 48.0266 L 61.210706,-5.389412 H 1.7008928 Z"
         id="path44230-08-4-4-7"
         inkscape:connector-curvature="0" />
    </clipPath>
    <clipPath
       clipPathUnits="userSpaceOnUse"
       id="clipPath44228-9-7-8-6-4">
      <path
         style="fill:none;stroke:#000000;stroke-width:0.26458332px;stroke-linecap:butt;stroke-linejoin:miter;stroke-opacity:1"
         d="M 6.0476191,0.00520786 16.117141,17.446131 H 48.0266 L 61.210706,-5.389412 H 1.7008928 Z"
         id="path44230-6-0-8-94-1"
         inkscape:connector-curvature="0" />
    </clipPath>
    <clipPath
       clipPathUnits="userSpaceOnUse"
       id="clipPath44228-8-1-7-8-2-7">
      <path
         style="fill:none;stroke:#000000;stroke-width:0.26458332px;stroke-linecap:butt;stroke-linejoin:miter;stroke-opacity:1"
         d="M 6.0476191,0.00520786 16.117141,17.446131 H 48.0266 L 61.210706,-5.389412 H 1.7008928 Z"
         id="path44230-0-0-4-9-26-1"
         inkscape:connector-curvature="0" />
    </clipPath>
    <clipPath
       clipPathUnits="userSpaceOnUse"
       id="clipPath44228-8-2-7-7-4-1">
      <path
         style="fill:none;stroke:#000000;stroke-width:0.26458332px;stroke-linecap:butt;stroke-linejoin:miter;stroke-opacity:1"
         d="M 6.0476191,0.00520786 16.117141,17.446131 H 48.0266 L 61.210706,-5.389412 H 1.7008928 Z"
         id="path44230-0-9-9-7-1-1"
         inkscape:connector-curvature="0" />
    </clipPath>
    <clipPath
       clipPathUnits="userSpaceOnUse"
       id="clipPath44228-8-2-5-6-64-2-7">
      <path
         style="fill:none;stroke:#000000;stroke-width:0.26458332px;stroke-linecap:butt;stroke-linejoin:miter;stroke-opacity:1"
         d="M 6.0476191,0.00520786 16.117141,17.446131 H 48.0266 L 61.210706,-5.389412 H 1.7008928 Z"
         id="path44230-0-9-6-3-30-8-0"
         inkscape:connector-curvature="0" />
    </clipPath>
    <symbol
       id="icon-eye"
       viewBox="0 0 28 28">
      <title
         id="title5132">eye</title>
      <path
         style="stroke-width:0.26458332"
         inkscape:connector-curvature="0"
         d="M 6.8791667,3.96875 C 6.486525,3.3610021 5.9488917,2.8400375 5.3041021,2.5093083 5.4694667,2.7902958 5.55625,3.1128229 5.55625,3.4395833 c 0,1.0210271 -0.8310563,1.8520834 -1.8520833,1.8520834 -1.0210271,0 -1.8520834,-0.8310563 -1.8520834,-1.8520834 0,-0.3264958 0.086783,-0.6490229 0.2521479,-0.930275 C 1.4591771,2.8400375 0.92180833,3.3610021 0.52916667,3.96875 1.2361333,5.0601562 2.3770167,5.8208333 3.7041667,5.8208333 c 1.32715,0 2.4680333,-0.7606771 3.175,-1.8520833 z M 3.9026042,2.38125 c 0,-0.1074208 -0.091017,-0.1984375 -0.1984375,-0.1984375 -0.690298,0 -1.2567709,0.5664729 -1.2567709,1.2567708 0,0.1074209 0.091017,0.1984375 0.1984375,0.1984375 0.1074209,0 0.1984375,-0.091017 0.1984375,-0.1984375 0,-0.4712229 0.3886729,-0.8598958 0.8598959,-0.8598958 0.1074208,0 0.1984375,-0.091017 0.1984375,-0.1984375 z m 3.5057291,1.5875 c 0,0.1034521 -0.033073,0.1984375 -0.082815,0.2852208 C 6.5648417,5.5065083 5.1715458,6.35 3.7041667,6.35 2.2367875,6.35 0.84322708,5.5025396 0.08281458,4.2539708 0.0333375,4.1671875 0,4.0719375 0,3.96875 0,3.8655625 0.03307292,3.7703125 0.08281458,3.6835292 0.84349167,2.4349604 2.2367875,1.5875 3.7041667,1.5875 c 1.4673791,0 2.8609395,0.8474604 3.621352,2.0960292 0.049477,0.086783 0.082815,0.1820333 0.082815,0.2852208 z"
         id="path5134" />
    </symbol>
    <symbol
       id="icon-sitemap"
       viewBox="0 0 28 28">
      <title
         id="title5642">sitemap</title>
      <path
         style="stroke-width:0.26458332"
         inkscape:connector-curvature="0"
         d="m 7.4083333,5.159375 v 1.3229167 c 0,0.219075 -0.1778,0.396875 -0.396875,0.396875 H 5.6885417 c -0.219075,0 -0.396875,-0.1778 -0.396875,-0.396875 V 5.159375 c 0,-0.219075 0.1778,-0.396875 0.396875,-0.396875 h 0.396875 V 3.96875 H 3.96875 V 4.7625 H 4.365625 C 4.5847,4.7625 4.7625,4.9403 4.7625,5.159375 v 1.3229167 c 0,0.219075 -0.1778,0.396875 -0.396875,0.396875 H 3.0427083 c -0.219075,0 -0.396875,-0.1778 -0.396875,-0.396875 V 5.159375 c 0,-0.219075 0.1778,-0.396875 0.396875,-0.396875 h 0.396875 V 3.96875 H 1.3229167 V 4.7625 h 0.396875 c 0.219075,0 0.396875,0.1778 0.396875,0.396875 v 1.3229167 c 0,0.219075 -0.1778,0.396875 -0.396875,0.396875 H 0.396875 C 0.1778,6.8791667 0,6.7013667 0,6.4822917 V 5.159375 C 0,4.9403 0.1778,4.7625 0.396875,4.7625 H 0.79375 V 3.96875 c 0,-0.2894542 0.2397125,-0.5291667 0.5291667,-0.5291667 h 2.1166666 v -0.79375 h -0.396875 c -0.219075,0 -0.396875,-0.1778 -0.396875,-0.396875 V 0.92604167 c 0,-0.219075 0.1778,-0.396875 0.396875,-0.396875 H 4.365625 c 0.219075,0 0.396875,0.1778 0.396875,0.396875 V 2.2489583 c 0,0.219075 -0.1778,0.396875 -0.396875,0.396875 H 3.96875 v 0.79375 h 2.1166667 c 0.2894541,0 0.5291666,0.2397125 0.5291666,0.5291667 V 4.7625 h 0.396875 c 0.219075,0 0.396875,0.1778 0.396875,0.396875 z"
         id="path5644" />
    </symbol>
  </defs>
  <sodipodi:namedview
     id="base"
     pagecolor="#ffffff"
     bordercolor="#666666"
     borderopacity="1.0"
     inkscape:pageopacity="0.0"
     inkscape:pageshadow="2"
     inkscape:zoom="0.24748737"
     inkscape:cx="444.41156"
     inkscape:cy="653.26744"
     inkscape:document-units="mm"
     inkscape:current-layer="layer1"
     showgrid="false"
     inkscape:window-width="1920"
     inkscape:window-height="1021"
     inkscape:window-x="0"
     inkscape:window-y="31"
     inkscape:window-maximized="1"
     units="mm" />
  <metadata
     id="metadata22233">
    <rdf:RDF>
      <cc:Work
         rdf:about="">
        <dc:format>image/svg+xml</dc:format>
        <dc:type
           rdf:resource="http://purl.org/dc/dcmitype/StillImage" />
        <dc:title />
      </cc:Work>
    </rdf:RDF>
  </metadata>
  <g
     inkscape:label="Ebene 1"
     inkscape:groupmode="layer"
     id="layer1"
     transform="translate(0,3)">
    <g
       id="g44569-3-8"
       transform="matrix(1.3266406,0,0,1.3266406,19.743158,-71.042842)"
       style="fill:#000000;fill-opacity:1">
      <path
         clip-path="url(#clipPath44228-6-0-1-1)"
         inkscape:connector-curvature="0"
         id="path20335-1-3-0-9"
         d="M -5.4378449e-4,0.04908517 -31.988829,55.451439 -5.5078449e-4,110.85378 H 63.97212 L 95.959966,55.451191 93.793946,51.70119 63.971685,0.04883237 Z M 8.6596112,15.049079 H 55.31196 l 23.326176,40.402362 -23.326179,40.40233 -46.6523488,1e-5 -23.3281212,-40.402342 z"
         style="color:#000000;font-style:normal;font-variant:normal;font-weight:normal;font-stretch:normal;font-size:medium;line-height:normal;font-family:sans-serif;font-variant-ligatures:normal;font-variant-position:normal;font-variant-caps:normal;font-variant-numeric:normal;font-variant-alternates:normal;font-feature-settings:normal;text-indent:0;text-align:start;text-decoration:none;text-decoration-line:none;text-decoration-style:solid;text-decoration-color:#000000;letter-spacing:normal;word-spacing:normal;text-transform:none;writing-mode:lr-tb;direction:ltr;text-orientation:mixed;dominant-baseline:auto;baseline-shift:baseline;text-anchor:start;white-space:normal;shape-padding:0;clip-rule:nonzero;display:inline;overflow:visible;visibility:visible;opacity:1;isolation:auto;mix-blend-mode:normal;color-interpolation:sRGB;color-interpolation-filters:linearRGB;solid-color:#000000;solid-opacity:1;vector-effect:none;fill:#000000;fill-opacity:1;fill-rule:nonzero;stroke:none;stroke-width:15;stroke-linecap:square;stroke-linejoin:miter;stroke-miterlimit:4;stroke-dasharray:none;stroke-dashoffset:0;stroke-opacity:1;paint-order:normal;color-rendering:auto;image-rendering:auto;shape-rendering:auto;text-rendering:auto;enable-background:accumulate"
         transform="matrix(0.88419826,0,0,0.88419826,70.611712,112.1658)" />
      <path
         clip-path="url(#clipPath44228-9-7-8-6-4)"
         inkscape:connector-curvature="0"
         id="path20335-1-4-9-9-2"
         d="M -5.4378449e-4,0.04908517 -31.988829,55.451439 -5.5078449e-4,110.85378 H 63.97212 L 95.959966,55.451191 93.793946,51.70119 63.971685,0.04883237 Z M 8.6596112,15.049079 H 55.31196 l 23.326176,40.402362 -23.326179,40.40233 -46.6523488,1e-5 -23.3281212,-40.402342 z"
         style="color:#000000;font-style:normal;font-variant:normal;font-weight:normal;font-stretch:normal;font-size:medium;line-height:normal;font-family:sans-serif;font-variant-ligatures:normal;font-variant-position:normal;font-variant-caps:normal;font-variant-numeric:normal;font-variant-alternates:normal;font-feature-settings:normal;text-indent:0;text-align:start;text-decoration:none;text-decoration-line:none;text-decoration-style:solid;text-decoration-color:#000000;letter-spacing:normal;word-spacing:normal;text-transform:none;writing-mode:lr-tb;direction:ltr;text-orientation:mixed;dominant-baseline:auto;baseline-shift:baseline;text-anchor:start;white-space:normal;shape-padding:0;clip-rule:nonzero;display:inline;overflow:visible;visibility:visible;opacity:1;isolation:auto;mix-blend-mode:normal;color-interpolation:sRGB;color-interpolation-filters:linearRGB;solid-color:#000000;solid-opacity:1;vector-effect:none;fill:#000000;fill-opacity:1;fill-rule:nonzero;stroke:none;stroke-width:15;stroke-linecap:square;stroke-linejoin:miter;stroke-miterlimit:4;stroke-dasharray:none;stroke-dashoffset:0;stroke-opacity:1;paint-order:normal;color-rendering:auto;image-rendering:auto;shape-rendering:auto;text-rendering:auto;enable-background:accumulate"
         transform="matrix(0.88419826,0,0,-0.88419826,70.143282,210.22594)" />
      <path
         clip-path="url(#clipPath44228-8-1-7-8-2-7)"
         inkscape:connector-curvature="0"
         id="path20335-1-8-2-1-2-8"
         d="M -5.4378449e-4,0.04908517 -31.988829,55.451439 -5.5078449e-4,110.85378 H 63.97212 L 95.959966,55.451191 93.793946,51.70119 63.971685,0.04883237 Z M 8.6596112,15.049079 H 55.31196 l 23.326176,40.402362 -23.326179,40.40233 -46.6523488,1e-5 -23.3281212,-40.402342 z"
         style="color:#000000;font-style:normal;font-variant:normal;font-weight:normal;font-stretch:normal;font-size:medium;line-height:normal;font-family:sans-serif;font-variant-ligatures:normal;font-variant-position:normal;font-variant-caps:normal;font-variant-numeric:normal;font-variant-alternates:normal;font-feature-settings:normal;text-indent:0;text-align:start;text-decoration:none;text-decoration-line:none;text-decoration-style:solid;text-decoration-color:#000000;letter-spacing:normal;word-spacing:normal;text-transform:none;writing-mode:lr-tb;direction:ltr;text-orientation:mixed;dominant-baseline:auto;baseline-shift:baseline;text-anchor:start;white-space:normal;shape-padding:0;clip-rule:nonzero;display:inline;overflow:visible;visibility:visible;opacity:1;isolation:auto;mix-blend-mode:normal;color-interpolation:sRGB;color-interpolation-filters:linearRGB;solid-color:#000000;solid-opacity:1;vector-effect:none;fill:#000000;fill-opacity:1;fill-rule:nonzero;stroke:none;stroke-width:15;stroke-linecap:square;stroke-linejoin:miter;stroke-miterlimit:4;stroke-dasharray:none;stroke-dashoffset:0;stroke-opacity:1;paint-order:normal;color-rendering:auto;image-rendering:auto;shape-rendering:auto;text-rendering:auto;enable-background:accumulate"
         transform="matrix(-0.44209915,0.76573818,-0.76573818,-0.44209915,155.02706,161.21785)" />
      <path
         inkscape:transform-center-y="-56.163334"
         inkscape:transform-center-x="-22.949624"
         clip-path="url(#clipPath44228-8-2-7-7-4-1)"
         inkscape:connector-curvature="0"
         id="path20335-1-8-7-5-5-8"
         d="M -5.4378449e-4,0.04908517 -31.988829,55.451439 -5.5078449e-4,110.85378 H 63.97212 L 95.959966,55.451191 93.793946,51.70119 63.971685,0.04883237 Z M 8.6596112,15.049079 H 55.31196 l 23.326176,40.402362 -23.326179,40.40233 -46.6523488,1e-5 -23.3281212,-40.402342 z"
         style="color:#000000;font-style:normal;font-variant:normal;font-weight:normal;font-stretch:normal;font-size:medium;line-height:normal;font-family:sans-serif;font-variant-ligatures:normal;font-variant-position:normal;font-variant-caps:normal;font-variant-numeric:normal;font-variant-alternates:normal;font-feature-settings:normal;text-indent:0;text-align:start;text-decoration:none;text-decoration-line:none;text-decoration-style:solid;text-decoration-color:#000000;letter-spacing:normal;word-spacing:normal;text-transform:none;writing-mode:lr-tb;direction:ltr;text-orientation:mixed;dominant-baseline:auto;baseline-shift:baseline;text-anchor:start;white-space:normal;shape-padding:0;clip-rule:nonzero;display:inline;overflow:visible;visibility:visible;opacity:1;isolation:auto;mix-blend-mode:normal;color-interpolation:sRGB;color-interpolation-filters:linearRGB;solid-color:#000000;solid-opacity:1;vector-effect:none;fill:#000000;fill-opacity:1;fill-rule:nonzero;stroke:none;stroke-width:15;stroke-linecap:square;stroke-linejoin:miter;stroke-miterlimit:4;stroke-dasharray:none;stroke-dashoffset:0;stroke-opacity:1;paint-order:normal;color-rendering:auto;image-rendering:auto;shape-rendering:auto;text-rendering:auto;enable-background:accumulate"
         transform="matrix(-0.44209915,-0.76573818,0.76573818,-0.44209915,70.104672,210.20321)" />
      <path
         inkscape:transform-center-y="-8.2067053"
         inkscape:transform-center-x="-60.113871"
         clip-path="url(#clipPath44228-8-2-5-6-64-2-7)"
         inkscape:connector-curvature="0"
         id="path20335-1-8-7-4-4-4-8"
         d="M -5.4378449e-4,0.04908517 -31.988829,55.451439 -5.5078449e-4,110.85378 H 63.97212 L 95.959966,55.451191 93.793946,51.70119 63.971685,0.04883237 Z M 8.6596112,15.049079 H 55.31196 l 23.326176,40.402362 -23.326179,40.40233 -46.6523488,1e-5 -23.3281212,-40.402342 z"
         style="color:#000000;font-style:normal;font-variant:normal;font-weight:normal;font-stretch:normal;font-size:medium;line-height:normal;font-family:sans-serif;font-variant-ligatures:normal;font-variant-position:normal;font-variant-caps:normal;font-variant-numeric:normal;font-variant-alternates:normal;font-feature-settings:normal;text-indent:0;text-align:start;text-decoration:none;text-decoration-line:none;text-decoration-style:solid;text-decoration-color:#000000;letter-spacing:normal;word-spacing:normal;text-transform:none;writing-mode:lr-tb;direction:ltr;text-orientation:mixed;dominant-baseline:auto;baseline-shift:baseline;text-anchor:start;white-space:normal;shape-padding:0;clip-rule:nonzero;display:inline;overflow:visible;visibility:visible;opacity:1;isolation:auto;mix-blend-mode:normal;color-interpolation:sRGB;color-interpolation-filters:linearRGB;solid-color:#000000;solid-opacity:1;vector-effect:none;fill:#000000;fill-opacity:1;fill-rule:nonzero;stroke:none;stroke-width:15;stroke-linecap:square;stroke-linejoin:miter;stroke-miterlimit:4;stroke-dasharray:none;stroke-dashoffset:0;stroke-opacity:1;paint-order:normal;color-rendering:auto;image-rendering:auto;shape-rendering:auto;text-rendering:auto;enable-background:accumulate"
         transform="matrix(0.44209915,-0.76573818,0.76573818,0.44209915,41.823076,161.17347)" />
    </g>
    <g
       id="use21861-6"
       style="fill:#000000;fill-opacity:1;stroke:none"
       transform="matrix(0.3654097,0,0,0.3654097,139.67616,58.423695)">
      <title
         id="title42512">check</title>
      <path
         id="path42514"
         d="M 3.175,1.3229167 1.0583333,3.4395833 0,2.38125 0.396875,1.984375 1.0583333,2.6458333 2.778125,0.92604167 Z"
         inkscape:connector-curvature="0"
         style="stroke-width:0.26458332;fill:#000000;fill-opacity:1" />
    </g>
    <path
       style="color:#000000;font-style:normal;font-variant:normal;font-weight:normal;font-stretch:normal;font-size:medium;line-height:normal;font-family:sans-serif;font-variant-ligatures:normal;font-variant-position:normal;font-variant-caps:normal;font-variant-numeric:normal;font-variant-alternates:normal;font-feature-settings:normal;text-indent:0;text-align:start;text-decoration:none;text-decoration-line:none;text-decoration-style:solid;text-decoration-color:#000000;letter-spacing:normal;word-spacing:normal;text-transform:none;writing-mode:lr-tb;direction:ltr;text-orientation:mixed;dominant-baseline:auto;baseline-shift:baseline;text-anchor:start;white-space:normal;shape-padding:0;clip-rule:nonzero;display:inline;overflow:visible;visibility:visible;opacity:1;isolation:auto;mix-blend-mode:normal;color-interpolation:sRGB;color-interpolation-filters:linearRGB;solid-color:#000000;solid-opacity:1;vector-effect:none;fill:#000000;fill-opacity:1;fill-rule:nonzero;stroke:none;stroke-width:12.74828911;stroke-linecap:square;stroke-linejoin:miter;stroke-miterlimit:4;stroke-dasharray:none;stroke-dashoffset:0;stroke-opacity:1;paint-order:normal;color-rendering:auto;image-rendering:auto;shape-rendering:auto;text-rendering:auto;enable-background:accumulate"
       d="M 208.2032,43.31916 92.361577,43.319374 34.440575,143.6415 l 57.920612,100.32189 115.841603,-2.3e-4 1.83947,-3.186 56.08153,-97.13611 z m -7.3614,12.750271 50.56228,87.573359 -50.55963,87.57183 -101.123679,0.002 -50.56226,-87.57383 50.561414,-87.574949 z"
       id="path21890-8"
       inkscape:connector-curvature="0" />
    <use
       id="use22407"
       transform="matrix(0.77754901,0,0,0.77754901,-133.73798,107.90492)"
       style="fill:#000000;fill-opacity:1;stroke:none"
       xlink:href="#icon-sitemap"
       x="0"
       y="0"
       width="100%"
       height="100%" />
    <path
       inkscape:connector-curvature="0"
       class="b"
       d="m 383.33846,171.02733 a 5.4459803,5.4459803 0 0 1 1.36534,3.82443 q 0,4.1495 -5.96994,7.64884 a 52.474927,52.474927 0 0 1 -12.96481,5.228 53.683444,53.683444 0 0 1 -13.30516,1.74393 q -19.27894,0 -30.44625,-11.1176 -11.16733,-11.11761 -11.17115,-30.69866 0,-12.44468 4.94498,-21.98661 a 36.301436,36.301436 0 0 1 13.90179,-14.85024 q 8.9568,-5.30831 20.38418,-5.30831 16.20408,0 25.75749,10.2877 9.55344,10.28772 9.5611,27.87623 0,3.31961 -1.36534,4.81113 -1.36534,1.49153 -4.43635,1.49535 h -54.91491 q 1.52978,28.54169 27.80357,28.54169 6.65451,0 11.42739,-1.74394 a 75.467366,75.467366 0 0 0 10.23416,-4.73082 q 4.4325,-2.48971 5.96991,-2.48971 a 4.2527599,4.2527599 0 0 1 3.224,1.46859 z M 332.76427,122.5604 q -6.57036,6.6392 -7.75977,18.73968 h 48.27189 q -0.34419,-12.27639 -6.31029,-18.83146 -5.9661,-6.55507 -16.71656,-6.55507 -10.91873,0.007 -17.48527,6.64685 z"
       id="path38"
       style="stroke-width:0.38244241;fill:#000000;fill-opacity:1" />
    <path
       inkscape:connector-curvature="0"
       class="b"
       d="m 477.32748,137.49478 v 44.96759 q 0,3.15515 -1.78975,4.89525 -1.78991,1.74012 -5.03307,1.74394 -3.24301,0 -5.11704,-1.74394 -1.87389,-1.74394 -1.88155,-4.89525 v -44.1377 q 0,-11.28205 -4.52051,-16.44502 -4.5205,-5.16298 -14.41042,-5.12854 -11.43121,0 -18.25014,6.80364 -6.81891,6.80365 -6.82281,18.40695 v 40.50067 q 0,3.15515 -1.78976,4.89525 -1.78991,1.74012 -5.03292,1.74394 -3.24316,0 -5.11719,-1.74394 -1.87389,-1.74394 -1.87779,-4.89525 v -70.02521 q 0,-2.98689 1.87779,-4.81114 1.87778,-1.82424 5.11719,-1.82424 3.05944,0 4.86076,1.82424 a 6.3638422,6.3638422 0 0 1 1.78991,4.64668 v 8.46345 a 27.577924,27.577924 0 0 1 11.42731,-11.36618 q 7.33147,-3.89711 16.7165,-3.90092 29.84973,0 29.85349,32.02573 z"
       id="path40"
       style="stroke-width:0.38244241;fill:#000000;fill-opacity:1" />
    <path
       inkscape:connector-curvature="0"
       class="b"
       d="m 568.41378,105.96623 a 7.1363759,7.1363759 0 0 1 4.58931,1.65979 5.3235987,5.3235987 0 0 1 1.38069,6.79982 l -33.27256,69.69249 a 7.8209479,7.8209479 0 0 1 -3.05945,3.39992 8.3869625,8.3869625 0 0 1 -4.43637,1.24294 8.0924819,8.0924819 0 0 1 -4.26423,-1.24294 8.9873975,8.9873975 0 0 1 -3.23926,-3.39992 l -33.09275,-69.69249 a 4.8149503,4.8149503 0 0 1 -0.68081,-2.4897 q 0,-2.48969 2.29466,-4.31394 a 7.9318561,7.9318561 0 0 1 5.03292,-1.82425 6.2873536,6.2873536 0 0 1 3.32728,0.99436 6.4212086,6.4212086 0 0 1 2.47447,2.82241 l 28.48812,62.22339 28.48812,-61.88683 q 1.87388,-3.98505 5.96986,-3.98505 z"
       id="path42"
       style="stroke-width:0.38244241;fill:#000000;fill-opacity:1" />
    <path
       inkscape:connector-curvature="0"
       class="b"
       d="m 590.58788,86.056271 q -2.5586,-2.321424 -2.5586,-6.138198 a 7.7062151,7.7062151 0 0 1 2.5586,-5.973763 q 2.55844,-2.321424 6.65066,-2.321424 4.09208,0 6.65067,2.321424 a 7.7062151,7.7062151 0 0 1 2.55845,5.973763 q 0,3.82442 -2.55845,6.138198 -2.55859,2.313777 -6.65067,2.321425 -4.08456,0 -6.65066,-2.321425 z m 1.6215,101.301349 q -1.96191,-1.74394 -1.96191,-4.89525 v -70.02521 q 0,-3.15134 1.96191,-4.89528 1.96192,-1.74393 5.03292,-1.74393 3.05959,0 4.94504,1.74393 1.88544,1.74394 1.87778,4.89528 v 70.02521 q 0,3.31959 -1.87778,4.97174 -1.87779,1.65215 -4.94504,1.6598 -3.07476,0.004 -5.03667,-1.73629 z"
       id="path44"
       style="stroke-width:0.38244241;fill:#000000;fill-opacity:1" />
    <path
       inkscape:connector-curvature="0"
       class="b"
       d="m 695.31967,179.05862 q 1.52972,1.41122 1.52972,3.90091 0,2.4897 -1.52972,3.90091 -1.52972,1.41122 -4.43638,1.41122 h -59.69918 a 6.7386357,6.7386357 0 0 1 -4.77679,-1.74393 5.5530642,5.5530642 0 0 1 -1.87778,-4.22983 q 0,-2.65414 2.04618,-5.14384 l 50.4824,-59.07205 h -46.72683 q -2.90275,0 -4.5205,-1.41123 a 4.6963931,4.6963931 0 0 1 -1.62151,-3.73264 5.1514996,5.1514996 0 0 1 1.62151,-3.98122 q 1.61775,-1.49153 4.5205,-1.49153 h 57.8253 q 3.05944,0 4.94489,1.74394 a 5.5645374,5.5645374 0 0 1 1.87778,4.22982 q 0,2.65414 -2.04603,5.14384 l -50.66207,59.06825 h 48.61603 q 2.8951,0 4.43248,1.40738 z"
       id="path46"
       style="stroke-width:0.38244241;fill:#000000;fill-opacity:1" />
    <path
       inkscape:connector-curvature="0"
       class="b"
       d="m 727.47548,184.28662 a 34.637811,34.637811 0 0 1 -13.81766,-14.6858 q -4.8609,-9.53812 -4.8609,-22.15107 0,-12.61296 4.8609,-22.15107 a 34.664582,34.664582 0 0 1 13.81766,-14.68579 q 8.95674,-5.14003 20.7246,-5.14384 11.76771,-0.004 20.80858,5.13238 a 34.519254,34.519254 0 0 1 13.90177,14.68579 q 4.86091,9.56105 4.86091,22.15106 0,12.59001 -4.86091,22.15106 a 34.488659,34.488659 0 0 1 -13.90177,14.68579 q -9.04477,5.14386 -20.81248,5.14386 -11.76772,0 -20.7207,-5.13237 z m 39.57517,-13.85591 q 6.56654,-7.8783 6.56654,-22.98096 0,-14.7661 -6.65067,-22.81651 -6.65066,-8.05042 -18.76269,-8.03129 -12.11202,0 -18.76268,8.03129 -6.65067,8.03129 -6.63911,22.81651 0,14.91525 6.56654,22.90066 6.56655,7.98539 18.85057,7.96627 12.26105,-0.004 18.8276,-7.88597 z"
       id="path48"
       style="stroke-width:0.38244241;fill:#000000;fill-opacity:1" />
    <path
       inkscape:connector-curvature="0"
       class="b"
       d="m 880.05462,137.49478 v 44.96759 q 0,3.15515 -1.78976,4.89525 -1.78991,1.74012 -5.03292,1.74394 -3.24316,0 -5.11704,-1.74394 -1.87403,-1.74394 -1.89702,-4.89525 v -44.1377 q 0,-11.28205 -4.5205,-16.44502 -4.52036,-5.16298 -14.41419,-5.14385 -11.43121,0 -18.25013,6.80365 -6.81892,6.80366 -6.79608,18.42225 v 40.50067 q 0,3.15515 -1.78976,4.89525 -1.7899,1.74012 -5.03291,1.74394 -3.24316,0 -5.11719,-1.74394 -1.87389,-1.74394 -1.87779,-4.89525 v -70.02521 q 0,-2.98689 1.87779,-4.81114 1.87793,-1.82424 5.11719,-1.82424 3.05943,0 4.86076,1.82424 a 6.3600177,6.3600177 0 0 1 1.7899,4.64668 v 8.46345 a 27.577924,27.577924 0 0 1 11.42731,-11.36618 q 7.33148,-3.89711 16.71665,-3.90092 29.84193,0 29.84569,32.02573 z"
       id="path50"
       style="stroke-width:0.38244241;fill:#000000;fill-opacity:1" />
  </g>
</svg>
